<svg width="128" height="128" viewBox="0 0 128 128" fill="none" xmlns="http://www.w3.org/2000/svg">
<path d="M64.0285 110.553C89.9084 110.553 110.888 89.538 110.888 63.6146C110.888 37.6912 89.9084 16.6761 64.0285 16.6761C38.1487 16.6761 17.1689 37.6912 17.1689 63.6146C17.1689 89.538 38.1487 110.553 64.0285 110.553Z" fill="#74BABE"/>
<path d="M64.0327 16.6756C72.973 16.6756 81.9133 19.146 89.7746 24.3957C111.355 38.7552 117.366 67.783 103.031 89.5538C93.9365 103.296 79.1387 110.707 63.8785 110.707C54.9382 110.707 45.9979 108.236 38.1366 102.987C16.5565 88.6273 10.5449 59.5996 24.8803 37.8288C33.8206 24.0869 48.7725 16.6756 64.0327 16.6756ZM64.0327 13.5875C47.231 13.5875 31.5084 21.9253 22.2598 36.1304C14.861 47.2474 12.3947 60.6804 15.0151 73.8046C17.6355 86.9289 25.3427 98.2003 36.441 105.612C44.6106 111.016 54.1675 113.949 63.8785 113.949C80.6802 113.949 96.4028 105.612 105.651 91.4066C113.05 80.2896 115.517 66.8565 112.896 53.7323C110.276 40.608 102.569 29.3366 91.4702 21.9253C83.3006 16.5212 73.7437 13.5875 64.0327 13.5875Z" fill="black"/>
<path d="M97.4801 30.726C95.168 28.41 92.7017 26.2483 89.9271 24.3955C89.1564 23.9323 88.3856 23.4691 87.6149 23.0059C86.6901 33.9685 80.6785 49.4088 70.505 64.6946C58.4818 83.0686 43.9923 96.0384 33.3564 99.1265C34.8979 100.362 36.4393 101.597 38.1349 102.832C40.2929 104.222 42.4509 105.457 44.763 106.538C55.7072 99.5897 68.1929 86.7742 78.9829 70.5619C88.0774 56.5113 94.3972 42.615 97.4801 30.726Z" fill="#4B9696"/>
<path d="M49.2344 108.236C68.8106 114.721 91.1614 107.618 103.185 89.5533C114.437 72.4146 113.05 50.6438 101.335 35.2035L49.2344 108.236Z" fill="#4B9696"/>
<path d="M73.2856 14.3595C74.0563 14.5139 74.827 14.6683 75.5977 14.8227C82.8425 10.4994 89.1624 9.41861 93.4784 12.1979C103.652 18.9916 97.4861 46.1665 79.6055 73.187C61.879 100.208 39.2199 116.574 29.0464 109.78C25.347 107.31 23.8056 101.906 24.268 94.9578C23.6514 94.1858 23.189 93.4138 22.7266 92.6418C19.1813 107.156 20.4144 118.581 27.0426 123.059C39.8365 131.551 67.4282 111.942 89.0082 79.3631C110.434 46.7841 117.525 13.5875 104.885 5.24973C97.6402 0.308837 85.9253 4.3233 73.2856 14.3595Z" fill="#B4DBDA"/>
<path d="M97.6399 3.08806C100.26 3.08806 102.727 3.70567 104.731 5.0953C117.524 13.5875 110.434 46.7841 88.8537 79.2087C70.819 106.692 48.314 124.758 33.9787 124.758C31.3583 124.758 28.892 124.14 26.8881 122.75C20.1058 118.273 19.0268 107.001 22.5721 92.3329C23.0345 93.1049 23.6511 93.877 24.1135 94.649C23.6511 101.751 25.1925 107.001 28.892 109.472C30.4334 110.552 32.2831 111.016 34.287 111.016C45.8477 111.016 64.3449 95.7298 79.451 72.8782C97.1775 45.8576 103.343 18.6827 93.3239 11.889C91.7825 10.8082 89.9327 10.345 87.9289 10.345C84.3836 10.345 80.0676 11.889 75.4433 14.5139C74.6726 14.3595 73.9018 14.2051 73.1311 14.0507C82.3797 7.10254 90.8576 3.08806 97.6399 3.08806ZM97.6399 0C90.241 0 81.1466 4.16887 71.2814 11.889L65.7322 16.2123L72.6687 17.2931C73.2853 17.4475 74.056 17.6019 74.8267 17.7563L76.0598 18.0651L77.1388 17.4475C81.3007 14.9771 85.1543 13.7419 87.9289 13.7419C89.4703 13.7419 90.7035 14.0507 91.6283 14.6683C99.1814 19.6092 94.8653 44.1592 76.9847 71.3341C61.1079 95.421 43.5356 108.082 34.4411 108.082C32.8997 108.082 31.6665 107.773 30.7417 107.156C28.1213 105.457 26.8881 101.134 27.3505 95.1122V94.0314L26.734 93.1049C26.2715 92.4873 25.6549 91.7153 25.1925 90.9433L21.3389 84.9216L19.6434 91.8697C15.6356 108.545 17.6395 120.434 25.3467 125.53C27.813 127.228 30.7417 128 34.1328 128C50.0096 128 72.977 109.163 91.6283 81.0615C102.264 65.0036 109.663 48.3281 112.746 33.8142C115.983 18.5284 113.825 7.41133 106.58 2.62484C103.806 0.77201 100.877 0 97.6399 0Z" fill="black"/>
</svg>
